<svg xmlns="http://www.w3.org/2000/svg" xmlns:xlink="http://www.w3.org/1999/xlink" width="139" zoomAndPan="magnify" viewBox="0 0 104.25 150" height="200" preserveAspectRatio="xMidYMid meet" version="1.0"><defs><clipPath id="844f8a516a"><path d="M 0 0.535156 L 102.761719 0.535156 L 102.761719 149.464844 L 0 149.464844 Z M 0 0.535156 " clip-rule="nonzero"/></clipPath><clipPath id="b1b4478c21"><path d="M 43.214844 69.042969 L 51.40625 69.042969 L 51.40625 80.957031 L 43.214844 80.957031 Z M 43.214844 69.042969 " clip-rule="nonzero"/></clipPath></defs><g clip-path="url(#844f8a516a)"><path fill="#ffffff" d="M 76.796875 0.546875 C 76.035156 0.660156 75.367188 1.296875 75.226562 1.460938 C 75.160156 1.542969 75.007812 1.625 74.964844 1.722656 L 1.03125 82.582031 C 0.691406 82.921875 0.507812 83.375 0.507812 83.886719 C 0.507812 84.917969 1.304688 85.71875 2.335938 85.71875 L 39.957031 85.71875 L 24.28125 146.855469 L 24.28125 147.246094 C 24.257812 147.363281 24.152344 147.511719 24.152344 147.636719 C 24.152344 148.667969 24.953125 149.46875 25.980469 149.46875 C 26.558594 149.46875 27.078125 149.222656 27.417969 148.816406 L 102.003906 63.769531 C 102.34375 63.433594 102.527344 62.980469 102.527344 62.464844 C 102.527344 61.4375 101.730469 60.636719 100.699219 60.636719 L 60.335938 60.636719 L 78.363281 3.289062 C 78.484375 3.042969 78.492188 2.800781 78.492188 2.507812 C 78.492188 1.476562 78.4375 1.027344 77.578125 0.679688 C 77.320312 0.574219 77.050781 0.507812 76.796875 0.546875 Z M 76.796875 0.546875 " fill-opacity="1" fill-rule="nonzero"/></g><g clip-path="url(#b1b4478c21)"><path fill="#ffffff" d="M 49.359375 69.042969 C 49.296875 69.054688 49.242188 69.105469 49.230469 69.117188 C 49.226562 69.125 49.214844 69.128906 49.210938 69.136719 L 43.296875 75.605469 C 43.269531 75.632812 43.253906 75.671875 43.253906 75.710938 C 43.253906 75.792969 43.316406 75.859375 43.402344 75.859375 L 46.410156 75.859375 L 45.15625 80.75 L 45.15625 80.78125 C 45.15625 80.789062 45.144531 80.800781 45.144531 80.8125 C 45.144531 80.894531 45.210938 80.957031 45.292969 80.957031 C 45.339844 80.957031 45.378906 80.9375 45.40625 80.90625 L 51.375 74.101562 C 51.402344 74.074219 51.417969 74.039062 51.417969 73.996094 C 51.417969 73.914062 51.351562 73.851562 51.269531 73.851562 L 48.039062 73.851562 L 49.484375 69.261719 C 49.492188 69.242188 49.492188 69.222656 49.492188 69.199219 C 49.492188 69.117188 49.488281 69.082031 49.421875 69.054688 C 49.398438 69.046875 49.378906 69.039062 49.359375 69.042969 Z M 49.359375 69.042969 " fill-opacity="1" fill-rule="nonzero"/></g></svg>